<svg xmlns="http://www.w3.org/2000/svg" width="900" height="700" viewBox="0 0 900 700">
<defs>
 <linearGradient id="g" x1="0" y1="0" x2="1" y2="1"><stop offset="0" stop-color="#9ba0a3"/><stop offset="1" stop-color="#ffffff" stop-opacity=".22"/></linearGradient>
 <filter id="shadow"><feDropShadow dx="0" dy="12" stdDeviation="14" flood-opacity=".18"/></filter>
</defs>
<rect width="900" height="700" fill="#eeeae3"/>
<rect x="95" y="55" width="710" height="590" rx="10" fill="url(#g)" filter="url(#shadow)"/>
<path d="M466,205 Q450,8 435,221" fill="none" stroke="#ffffff" stroke-opacity=".22" stroke-width="2"/><path d="M211,126 Q127,88 43,61" fill="none" stroke="#ffffff" stroke-opacity=".22" stroke-width="2"/><path d="M211,39 Q164,104 117,73" fill="none" stroke="#ffffff" stroke-opacity=".22" stroke-width="2"/><path d="M270,121 Q333,163 397,60" fill="none" stroke="#ffffff" stroke-opacity=".22" stroke-width="2"/><path d="M33,88 Q-53,1 -138,176" fill="none" stroke="#ffffff" stroke-opacity=".22" stroke-width="2"/><path d="M446,21 Q371,29 297,-54" fill="none" stroke="#ffffff" stroke-opacity=".22" stroke-width="2"/><path d="M158,0 Q180,158 202,-68" fill="none" stroke="#ffffff" stroke-opacity=".22" stroke-width="2"/><path d="M479,314 Q404,163 330,291" fill="none" stroke="#ffffff" stroke-opacity=".22" stroke-width="2"/><path d="M53,210 Q84,351 115,235" fill="none" stroke="#ffffff" stroke-opacity=".22" stroke-width="2"/><path d="M105,147 Q163,394 222,64" fill="none" stroke="#ffffff" stroke-opacity=".22" stroke-width="2"/>
<rect x="95" y="520" width="710" height="125" fill="#111" opacity=".76"/>
<text x="125" y="558" font-family="Arial,sans-serif" font-size="27" font-weight="700" fill="#fff">Мотиво Серый Светлый</text>
<text x="125" y="592" font-family="Arial,sans-serif" font-size="19" fill="#fff" opacity=".92">Kerama Marazzi</text>
<text x="125" y="621" font-family="Arial,sans-serif" font-size="17" fill="#fff" opacity=".82">400 × 400 × 8 мм</text>
</svg>