<svg xmlns="http://www.w3.org/2000/svg" width="900" height="700" viewBox="0 0 900 700">
<defs>
 <linearGradient id="g" x1="0" y1="0" x2="1" y2="1"><stop offset="0" stop-color="#d8c5a4"/><stop offset="1" stop-color="#ffffff" stop-opacity=".22"/></linearGradient>
 <filter id="shadow"><feDropShadow dx="0" dy="12" stdDeviation="14" flood-opacity=".18"/></filter>
</defs>
<rect width="900" height="700" fill="#eeeae3"/>
<rect x="95" y="55" width="710" height="590" rx="10" fill="url(#g)" filter="url(#shadow)"/>
<path d="M519,324 Q574,174 629,280" fill="none" stroke="#ffffff" stroke-opacity=".22" stroke-width="2"/><path d="M278,399 Q223,209 169,338" fill="none" stroke="#ffffff" stroke-opacity=".22" stroke-width="2"/><path d="M153,203 Q236,56 320,268" fill="none" stroke="#ffffff" stroke-opacity=".22" stroke-width="2"/><path d="M554,126 Q558,69 563,75" fill="none" stroke="#ffffff" stroke-opacity=".22" stroke-width="2"/><path d="M468,61 Q405,190 342,-18" fill="none" stroke="#ffffff" stroke-opacity=".22" stroke-width="2"/><path d="M590,211 Q653,315 716,191" fill="none" stroke="#ffffff" stroke-opacity=".22" stroke-width="2"/><path d="M319,25 Q390,256 461,84" fill="none" stroke="#ffffff" stroke-opacity=".22" stroke-width="2"/><path d="M57,319 Q67,35 77,232" fill="none" stroke="#ffffff" stroke-opacity=".22" stroke-width="2"/><path d="M557,75 Q510,313 463,41" fill="none" stroke="#ffffff" stroke-opacity=".22" stroke-width="2"/><path d="M539,366 Q466,107 393,313" fill="none" stroke="#ffffff" stroke-opacity=".22" stroke-width="2"/>
<rect x="95" y="520" width="710" height="125" fill="#111" opacity=".76"/>
<text x="125" y="558" font-family="Arial,sans-serif" font-size="27" font-weight="700" fill="#fff">Про Матрикс Бежевый обрезной</text>
<text x="125" y="592" font-family="Arial,sans-serif" font-size="19" fill="#fff" opacity=".92">Kerama Marazzi</text>
<text x="125" y="621" font-family="Arial,sans-serif" font-size="17" fill="#fff" opacity=".82">600 × 150 × 11 мм</text>
</svg>