<svg xmlns="http://www.w3.org/2000/svg" width="900" height="700" viewBox="0 0 900 700">
<defs>
 <linearGradient id="g" x1="0" y1="0" x2="1" y2="1"><stop offset="0" stop-color="#d8c5a4"/><stop offset="1" stop-color="#ffffff" stop-opacity=".22"/></linearGradient>
 <filter id="shadow"><feDropShadow dx="0" dy="12" stdDeviation="14" flood-opacity=".18"/></filter>
</defs>
<rect width="900" height="700" fill="#eeeae3"/>
<rect x="95" y="55" width="710" height="590" rx="10" fill="url(#g)" filter="url(#shadow)"/>
<path d="M361,255 Q424,99 487,181" fill="none" stroke="#ffffff" stroke-opacity=".22" stroke-width="2"/><path d="M295,362 Q213,191 131,311" fill="none" stroke="#ffffff" stroke-opacity=".22" stroke-width="2"/><path d="M506,102 Q533,276 560,144" fill="none" stroke="#ffffff" stroke-opacity=".22" stroke-width="2"/><path d="M39,210 Q-7,35 -52,209" fill="none" stroke="#ffffff" stroke-opacity=".22" stroke-width="2"/><path d="M265,95 Q255,364 246,3" fill="none" stroke="#ffffff" stroke-opacity=".22" stroke-width="2"/><path d="M325,176 Q371,285 417,233" fill="none" stroke="#ffffff" stroke-opacity=".22" stroke-width="2"/><path d="M52,159 Q41,236 31,146" fill="none" stroke="#ffffff" stroke-opacity=".22" stroke-width="2"/><path d="M164,266 Q228,79 293,186" fill="none" stroke="#ffffff" stroke-opacity=".22" stroke-width="2"/><path d="M201,46 Q245,171 289,-9" fill="none" stroke="#ffffff" stroke-opacity=".22" stroke-width="2"/><path d="M578,185 Q608,46 639,100" fill="none" stroke="#ffffff" stroke-opacity=".22" stroke-width="2"/>
<rect x="95" y="520" width="710" height="125" fill="#111" opacity=".76"/>
<text x="125" y="558" font-family="Arial,sans-serif" font-size="27" font-weight="700" fill="#fff">Радуга Бежевый Обрезной</text>
<text x="125" y="592" font-family="Arial,sans-serif" font-size="19" fill="#fff" opacity=".92">Kerama Marazzi</text>
<text x="125" y="621" font-family="Arial,sans-serif" font-size="17" fill="#fff" opacity=".82">600 × 600 × 11 мм</text>
</svg>