<svg xmlns="http://www.w3.org/2000/svg" width="900" height="700" viewBox="0 0 900 700">
<defs>
 <linearGradient id="g" x1="0" y1="0" x2="1" y2="1"><stop offset="0" stop-color="#9ba0a3"/><stop offset="1" stop-color="#ffffff" stop-opacity=".22"/></linearGradient>
 <filter id="shadow"><feDropShadow dx="0" dy="12" stdDeviation="14" flood-opacity=".18"/></filter>
</defs>
<rect width="900" height="700" fill="#eeeae3"/>
<rect x="95" y="55" width="710" height="590" rx="10" fill="url(#g)" filter="url(#shadow)"/>
<path d="M215,307 Q213,167 211,383" fill="none" stroke="#ffffff" stroke-opacity=".22" stroke-width="2"/><path d="M493,395 Q492,298 492,360" fill="none" stroke="#ffffff" stroke-opacity=".22" stroke-width="2"/><path d="M74,12 Q1,220 -71,45" fill="none" stroke="#ffffff" stroke-opacity=".22" stroke-width="2"/><path d="M165,304 Q238,192 312,359" fill="none" stroke="#ffffff" stroke-opacity=".22" stroke-width="2"/><path d="M153,288 Q117,58 82,209" fill="none" stroke="#ffffff" stroke-opacity=".22" stroke-width="2"/><path d="M119,96 Q113,334 108,46" fill="none" stroke="#ffffff" stroke-opacity=".22" stroke-width="2"/><path d="M589,78 Q597,18 606,166" fill="none" stroke="#ffffff" stroke-opacity=".22" stroke-width="2"/><path d="M509,370 Q565,73 621,270" fill="none" stroke="#ffffff" stroke-opacity=".22" stroke-width="2"/><path d="M336,0 Q409,204 482,-81" fill="none" stroke="#ffffff" stroke-opacity=".22" stroke-width="2"/><path d="M260,244 Q344,33 429,294" fill="none" stroke="#ffffff" stroke-opacity=".22" stroke-width="2"/>
<rect x="95" y="520" width="710" height="125" fill="#111" opacity=".76"/>
<text x="125" y="558" font-family="Arial,sans-serif" font-size="27" font-weight="700" fill="#fff">Коллиано Серый</text>
<text x="125" y="592" font-family="Arial,sans-serif" font-size="19" fill="#fff" opacity=".92">Kerama Marazzi</text>
<text x="125" y="621" font-family="Arial,sans-serif" font-size="17" fill="#fff" opacity=".82">300 × 300 × 8 мм</text>
</svg>